<svg xmlns="http://www.w3.org/2000/svg" width="75.506" height="58.877" viewBox="0 0 75.506 58.877">
  <g id="组_96" data-name="组 96" transform="translate(-210.097 -323.473)">
    <path id="路径_33" data-name="路径 33" d="M220.009,325.223H231.27l10.4,36.589" transform="translate(0)" fill="none" stroke="#fff" stroke-linecap="round" stroke-linejoin="round" stroke-width="3.5"/>
    <path id="路径_34" data-name="路径 34" d="M272.33,356.992H236.021l-6.609-24.172h48.474Z" transform="translate(5.965 4.819)" fill="none" stroke="#fff" stroke-linecap="round" stroke-linejoin="round" stroke-width="3.5"/>
    <path id="路径_35" data-name="路径 35" d="M271.893,356.053H234.141a4.01,4.01,0,0,1-3.729-4.221h0a4.011,4.011,0,0,1,3.729-4.221" transform="translate(6.598 14.201)" fill="none" stroke="#fff" stroke-linecap="round" stroke-linejoin="round" stroke-width="3.5"/>
    <circle id="椭圆_40" data-name="椭圆 40" cx="4.681" cy="4.681" r="4.681" transform="translate(243.903 371.238)" fill="none" stroke="#fff" stroke-linecap="round" stroke-linejoin="round" stroke-width="3.5"/>
    <circle id="椭圆_41" data-name="椭圆 41" cx="4.681" cy="4.681" r="4.681" transform="translate(268.698 371.238)" fill="none" stroke="#fff" stroke-linecap="round" stroke-linejoin="round" stroke-width="3.5"/>
    <line id="直线_27" data-name="直线 27" x2="3.395" y2="24.172" transform="translate(247.981 337.639)" fill="none" stroke="#fff" stroke-linecap="round" stroke-linejoin="round" stroke-width="3.5"/>
    <line id="直线_28" data-name="直线 28" x1="0.436" y2="24.172" transform="translate(260.993 337.639)" fill="none" stroke="#fff" stroke-linecap="round" stroke-linejoin="round" stroke-width="3.5"/>
    <line id="直线_29" data-name="直线 29" x1="4.071" y2="24.172" transform="translate(270.589 337.639)" fill="none" stroke="#fff" stroke-linecap="round" stroke-linejoin="round" stroke-width="3.5"/>
    <line id="直线_30" data-name="直线 30" x2="42.391" transform="translate(238.682 349.725)" fill="none" stroke="#fff" stroke-linecap="round" stroke-linejoin="round" stroke-width="3.5"/>
  </g>
  <g id="组_97" data-name="组 97" transform="translate(-281.981 -2133.553)">
    <path id="路径_45" data-name="路径 45" d="M-787.519-7712.547H-770.7" transform="translate(1071 9879.147)" fill="none" stroke="#fff" stroke-linecap="round" stroke-width="3"/>
    <path id="路径_46" data-name="路径 46" d="M0,0H16.824" transform="translate(291.893 2174.404) rotate(-90)" fill="none" stroke="#fff" stroke-linecap="round" stroke-width="3"/>
  </g>
</svg>
