<svg xmlns="http://www.w3.org/2000/svg" viewBox="0 0 244.8 88.85"><defs><style>.cls-1,.cls-2{isolation:isolate;}.cls-2{font-size:45px;font-family:Futura-Bold, Futura;font-weight:700;letter-spacing:0em;}.cls-3{letter-spacing:0em;}.cls-4{letter-spacing:-0.03em;}.cls-5{letter-spacing:0.01em;}.cls-6{letter-spacing:0em;}.cls-7,.cls-9{fill:none;stroke:#94ab3c;stroke-miterlimit:10;}.cls-7{stroke-width:7px;}.cls-8{fill:#94ab3c;}.cls-9{stroke-width:4px;}</style></defs><g id="Layer_2" data-name="Layer 2"><g id="Layer_2-2" data-name="Layer 2"><g id="market" class="cls-1"><text class="cls-2" transform="translate(70.33 73.02)">ma<tspan class="cls-3" x="76.54" y="0">r</tspan><tspan class="cls-4" x="97.69" y="0">k</tspan><tspan class="cls-5" x="127.89" y="0">e</tspan><tspan class="cls-6" x="157.5" y="0">t</tspan></text></g><g id="Group_9" data-name="Group 9"><g id="Group_8" data-name="Group 8"><path id="Path_18" data-name="Path 18" class="cls-7" d="M45.21,38a14.07,14.07,0,0,0,14-14V17.52a14.06,14.06,0,0,0-14-14"/><path id="Path_21" data-name="Path 21" class="cls-7" d="M22.42,45.47V38H45.21a14.06,14.06,0,0,1,14,14v6.49a14.06,14.06,0,0,1-14,14H11.67V35.16H0"/></g><path id="Path_22" data-name="Path 22" class="cls-7" d="M45.21,3.5H15.76V18.24"/><circle id="Ellipse_16" data-name="Ellipse 16" class="cls-8" cx="26.97" cy="84.24" r="4.61"/><circle id="Ellipse_17" data-name="Ellipse 17" class="cls-8" cx="43.9" cy="84.24" r="4.61"/><line id="Line_7" data-name="Line 7" class="cls-9" x1="23.67" y1="52.69" x2="47.19" y2="52.69"/><line id="Line_8" data-name="Line 8" class="cls-9" x1="23.67" y1="61.26" x2="47.19" y2="61.26"/></g></g></g></svg>